<?xml version="1.0" encoding="UTF-8" standalone="no"?>
<!DOCTYPE svg PUBLIC "-//W3C//DTD SVG 1.1//EN"
 "http://www.w3.org/Graphics/SVG/1.1/DTD/svg11.dtd">
<!-- Generated by graphviz version 2.44.1 (20200629.0846)
 -->
<!-- Title: G Pages: 1 -->
<svg width="1034pt" height="548pt"
 viewBox="0.00 0.00 1034.04 548.00" xmlns="http://www.w3.org/2000/svg" xmlns:xlink="http://www.w3.org/1999/xlink">
<g id="graph0" class="graph" transform="scale(1 1) rotate(0) translate(4 544)">
<title>G</title>
<polygon fill="white" stroke="transparent" points="-4,4 -4,-544 1030.04,-544 1030.04,4 -4,4"/>
<!-- ELT_Universe -->
<g id="node1" class="node">
<title>ELT_Universe</title>
<ellipse fill="none" stroke="black" cx="769.6" cy="-522" rx="63.09" ry="18"/>
<text text-anchor="middle" x="769.6" y="-518.3" font-family="Times,serif" font-size="14.00">ELT_Universe</text>
</g>
<!-- Solar_System -->
<g id="node2" class="node">
<title>Solar_System</title>
<ellipse fill="none" stroke="black" cx="699.6" cy="-450" rx="59.59" ry="18"/>
<text text-anchor="middle" x="699.6" y="-446.3" font-family="Times,serif" font-size="14.00">Solar_System</text>
</g>
<!-- ELT_Universe&#45;&gt;Solar_System -->
<g id="edge1" class="edge">
<title>ELT_Universe&#45;&gt;Solar_System</title>
<path fill="none" stroke="black" d="M753.01,-504.41C744.12,-495.52 733.01,-484.41 723.23,-474.63"/>
<polygon fill="black" stroke="black" points="725.61,-472.07 716.07,-467.47 720.66,-477.02 725.61,-472.07"/>
</g>
<!-- Plectron_Field -->
<g id="node3" class="node">
<title>Plectron_Field</title>
<ellipse fill="none" stroke="black" cx="839.6" cy="-450" rx="62.29" ry="18"/>
<text text-anchor="middle" x="839.6" y="-446.3" font-family="Times,serif" font-size="14.00">Plectron_Field</text>
</g>
<!-- ELT_Universe&#45;&gt;Plectron_Field -->
<g id="edge2" class="edge">
<title>ELT_Universe&#45;&gt;Plectron_Field</title>
<path fill="none" stroke="black" d="M786.19,-504.41C795.08,-495.52 806.19,-484.41 815.97,-474.63"/>
<polygon fill="black" stroke="black" points="818.53,-477.02 823.13,-467.47 813.58,-472.07 818.53,-477.02"/>
</g>
<!-- Sun -->
<g id="node4" class="node">
<title>Sun</title>
<ellipse fill="none" stroke="black" cx="561.6" cy="-378" rx="27" ry="18"/>
<text text-anchor="middle" x="561.6" y="-374.3" font-family="Times,serif" font-size="14.00">Sun</text>
</g>
<!-- Solar_System&#45;&gt;Sun -->
<g id="edge3" class="edge">
<title>Solar_System&#45;&gt;Sun</title>
<path fill="none" stroke="black" d="M670.33,-434.15C647.24,-422.44 615.16,-406.17 591.82,-394.33"/>
<polygon fill="black" stroke="black" points="593.23,-391.12 582.73,-389.72 590.06,-397.36 593.23,-391.12"/>
</g>
<!-- Asteroids -->
<g id="node5" class="node">
<title>Asteroids</title>
<ellipse fill="none" stroke="black" cx="650.6" cy="-378" rx="44.39" ry="18"/>
<text text-anchor="middle" x="650.6" y="-374.3" font-family="Times,serif" font-size="14.00">Asteroids</text>
</g>
<!-- Solar_System&#45;&gt;Asteroids -->
<g id="edge4" class="edge">
<title>Solar_System&#45;&gt;Asteroids</title>
<path fill="none" stroke="black" d="M687.74,-432.05C681.9,-423.71 674.74,-413.49 668.27,-404.25"/>
<polygon fill="black" stroke="black" points="670.95,-401.97 662.35,-395.79 665.22,-405.99 670.95,-401.97"/>
</g>
<!-- Ghelon -->
<g id="node6" class="node">
<title>Ghelon</title>
<ellipse fill="none" stroke="black" cx="749.6" cy="-378" rx="36.29" ry="18"/>
<text text-anchor="middle" x="749.6" y="-374.3" font-family="Times,serif" font-size="14.00">Ghelon</text>
</g>
<!-- Solar_System&#45;&gt;Ghelon -->
<g id="edge5" class="edge">
<title>Solar_System&#45;&gt;Ghelon</title>
<path fill="none" stroke="black" d="M711.7,-432.05C717.81,-423.5 725.33,-412.97 732.06,-403.56"/>
<polygon fill="black" stroke="black" points="734.99,-405.48 737.95,-395.31 729.29,-401.41 734.99,-405.48"/>
</g>
<!-- Other_Planets -->
<g id="node7" class="node">
<title>Other_Planets</title>
<ellipse fill="none" stroke="black" cx="864.6" cy="-378" rx="60.39" ry="18"/>
<text text-anchor="middle" x="864.6" y="-374.3" font-family="Times,serif" font-size="14.00">Other_Planets</text>
</g>
<!-- Solar_System&#45;&gt;Other_Planets -->
<g id="edge6" class="edge">
<title>Solar_System&#45;&gt;Other_Planets</title>
<path fill="none" stroke="black" d="M732.99,-434.83C758.6,-423.97 794.13,-408.9 821.82,-397.15"/>
<polygon fill="black" stroke="black" points="823.42,-400.27 831.26,-393.14 820.68,-393.83 823.42,-400.27"/>
</g>
<!-- Overworld -->
<g id="node8" class="node">
<title>Overworld</title>
<ellipse fill="none" stroke="black" cx="448.6" cy="-306" rx="48.99" ry="18"/>
<text text-anchor="middle" x="448.6" y="-302.3" font-family="Times,serif" font-size="14.00">Overworld</text>
</g>
<!-- Ghelon&#45;&gt;Overworld -->
<g id="edge7" class="edge">
<title>Ghelon&#45;&gt;Overworld</title>
<path fill="none" stroke="black" d="M722.12,-365.96C716.08,-363.79 709.67,-361.66 703.6,-360 617.75,-336.48 593.2,-344.55 506.6,-324 502.69,-323.07 498.65,-322.04 494.61,-320.96"/>
<polygon fill="black" stroke="black" points="495.21,-317.5 484.64,-318.2 493.34,-324.24 495.21,-317.5"/>
</g>
<!-- The_In_between_Void -->
<g id="node9" class="node">
<title>The_In_between_Void</title>
<ellipse fill="none" stroke="black" cx="606.6" cy="-306" rx="90.98" ry="18"/>
<text text-anchor="middle" x="606.6" y="-302.3" font-family="Times,serif" font-size="14.00">The_In_between_Void</text>
</g>
<!-- Ghelon&#45;&gt;The_In_between_Void -->
<g id="edge8" class="edge">
<title>Ghelon&#45;&gt;The_In_between_Void</title>
<path fill="none" stroke="black" d="M724.69,-364.81C703.61,-354.49 672.98,-339.49 648.19,-327.36"/>
<polygon fill="black" stroke="black" points="649.53,-324.12 639.01,-322.86 646.45,-330.41 649.53,-324.12"/>
</g>
<!-- Nether -->
<g id="node10" class="node">
<title>Nether</title>
<ellipse fill="none" stroke="black" cx="749.6" cy="-306" rx="34.39" ry="18"/>
<text text-anchor="middle" x="749.6" y="-302.3" font-family="Times,serif" font-size="14.00">Nether</text>
</g>
<!-- Ghelon&#45;&gt;Nether -->
<g id="edge9" class="edge">
<title>Ghelon&#45;&gt;Nether</title>
<path fill="none" stroke="black" d="M749.6,-359.7C749.6,-351.98 749.6,-342.71 749.6,-334.11"/>
<polygon fill="black" stroke="black" points="753.1,-334.1 749.6,-324.1 746.1,-334.1 753.1,-334.1"/>
</g>
<!-- The_End -->
<g id="node11" class="node">
<title>The_End</title>
<ellipse fill="none" stroke="black" cx="844.6" cy="-306" rx="42.79" ry="18"/>
<text text-anchor="middle" x="844.6" y="-302.3" font-family="Times,serif" font-size="14.00">The_End</text>
</g>
<!-- Ghelon&#45;&gt;The_End -->
<g id="edge10" class="edge">
<title>Ghelon&#45;&gt;The_End</title>
<path fill="none" stroke="black" d="M769.28,-362.5C782.73,-352.59 800.77,-339.29 815.82,-328.2"/>
<polygon fill="black" stroke="black" points="818.31,-330.72 824.28,-321.97 814.16,-325.08 818.31,-330.72"/>
</g>
<!-- Upper_Bound -->
<g id="node12" class="node">
<title>Upper_Bound</title>
<ellipse fill="none" stroke="black" cx="965.6" cy="-306" rx="60.39" ry="18"/>
<text text-anchor="middle" x="965.6" y="-302.3" font-family="Times,serif" font-size="14.00">Upper_Bound</text>
</g>
<!-- Ghelon&#45;&gt;Upper_Bound -->
<g id="edge11" class="edge">
<title>Ghelon&#45;&gt;Upper_Bound</title>
<path fill="none" stroke="black" d="M777.73,-366.34C783.62,-364.18 789.79,-361.98 795.6,-360 835.29,-346.49 880.63,-332.42 914.5,-322.18"/>
<polygon fill="black" stroke="black" points="915.62,-325.49 924.18,-319.26 913.6,-318.79 915.62,-325.49"/>
</g>
<!-- Lithosphere -->
<g id="node13" class="node">
<title>Lithosphere</title>
<ellipse fill="none" stroke="black" cx="598.6" cy="-234" rx="52.79" ry="18"/>
<text text-anchor="middle" x="598.6" y="-230.3" font-family="Times,serif" font-size="14.00">Lithosphere</text>
</g>
<!-- Overworld&#45;&gt;Lithosphere -->
<g id="edge12" class="edge">
<title>Overworld&#45;&gt;Lithosphere</title>
<path fill="none" stroke="black" d="M477.52,-291.5C500.87,-280.61 533.96,-265.17 559.64,-253.18"/>
<polygon fill="black" stroke="black" points="561.16,-256.33 568.74,-248.93 558.2,-249.99 561.16,-256.33"/>
</g>
<!-- Atmosphere -->
<g id="node14" class="node">
<title>Atmosphere</title>
<ellipse fill="none" stroke="black" cx="448.6" cy="-234" rx="53.89" ry="18"/>
<text text-anchor="middle" x="448.6" y="-230.3" font-family="Times,serif" font-size="14.00">Atmosphere</text>
</g>
<!-- Overworld&#45;&gt;Atmosphere -->
<g id="edge13" class="edge">
<title>Overworld&#45;&gt;Atmosphere</title>
<path fill="none" stroke="black" d="M448.6,-287.7C448.6,-279.98 448.6,-270.71 448.6,-262.11"/>
<polygon fill="black" stroke="black" points="452.1,-262.1 448.6,-252.1 445.1,-262.1 452.1,-262.1"/>
</g>
<!-- Hydrosphere -->
<g id="node15" class="node">
<title>Hydrosphere</title>
<ellipse fill="none" stroke="black" cx="271.6" cy="-234" rx="55.79" ry="18"/>
<text text-anchor="middle" x="271.6" y="-230.3" font-family="Times,serif" font-size="14.00">Hydrosphere</text>
</g>
<!-- Overworld&#45;&gt;Hydrosphere -->
<g id="edge14" class="edge">
<title>Overworld&#45;&gt;Hydrosphere</title>
<path fill="none" stroke="black" d="M416.54,-292.32C388.11,-281.08 346.32,-264.55 314.91,-252.13"/>
<polygon fill="black" stroke="black" points="316.11,-248.84 305.52,-248.42 313.53,-255.35 316.11,-248.84"/>
</g>
<!-- Biosphere -->
<g id="node16" class="node">
<title>Biosphere</title>
<ellipse fill="none" stroke="black" cx="448.6" cy="-162" rx="46.29" ry="18"/>
<text text-anchor="middle" x="448.6" y="-158.3" font-family="Times,serif" font-size="14.00">Biosphere</text>
</g>
<!-- Lithosphere&#45;&gt;Biosphere -->
<g id="edge15" class="edge">
<title>Lithosphere&#45;&gt;Biosphere</title>
<path fill="none" stroke="black" d="M568.6,-219C544.95,-207.96 511.82,-192.5 486.36,-180.62"/>
<polygon fill="black" stroke="black" points="487.56,-177.32 477.02,-176.26 484.6,-183.66 487.56,-177.32"/>
</g>
<!-- Gravel -->
<g id="node17" class="node">
<title>Gravel</title>
<ellipse fill="none" stroke="black" cx="842.6" cy="-162" rx="34.39" ry="18"/>
<text text-anchor="middle" x="842.6" y="-158.3" font-family="Times,serif" font-size="14.00">Gravel</text>
</g>
<!-- Lithosphere&#45;&gt;Gravel -->
<g id="edge18" class="edge">
<title>Lithosphere&#45;&gt;Gravel</title>
<path fill="none" stroke="black" d="M641.38,-223.28C682.36,-213.6 745.76,-197.67 799.6,-180 802,-179.21 804.46,-178.36 806.93,-177.47"/>
<polygon fill="black" stroke="black" points="808.26,-180.71 816.4,-173.93 805.81,-174.16 808.26,-180.71"/>
</g>
<!-- Soil -->
<g id="node18" class="node">
<title>Soil</title>
<ellipse fill="none" stroke="black" cx="539.6" cy="-162" rx="27" ry="18"/>
<text text-anchor="middle" x="539.6" y="-158.3" font-family="Times,serif" font-size="14.00">Soil</text>
</g>
<!-- Lithosphere&#45;&gt;Soil -->
<g id="edge19" class="edge">
<title>Lithosphere&#45;&gt;Soil</title>
<path fill="none" stroke="black" d="M584.62,-216.41C576.95,-207.31 567.33,-195.9 558.95,-185.96"/>
<polygon fill="black" stroke="black" points="561.39,-183.43 552.27,-178.04 556.04,-187.94 561.39,-183.43"/>
</g>
<!-- Rock_Layer -->
<g id="node19" class="node">
<title>Rock_Layer</title>
<ellipse fill="none" stroke="black" cx="736.6" cy="-162" rx="53.89" ry="18"/>
<text text-anchor="middle" x="736.6" y="-158.3" font-family="Times,serif" font-size="14.00">Rock_Layer</text>
</g>
<!-- Lithosphere&#45;&gt;Rock_Layer -->
<g id="edge20" class="edge">
<title>Lithosphere&#45;&gt;Rock_Layer</title>
<path fill="none" stroke="black" d="M626.86,-218.67C647.65,-208.12 676.13,-193.67 698.87,-182.14"/>
<polygon fill="black" stroke="black" points="700.57,-185.2 707.9,-177.56 697.4,-178.96 700.57,-185.2"/>
</g>
<!-- Bedrock -->
<g id="node20" class="node">
<title>Bedrock</title>
<ellipse fill="none" stroke="black" cx="624.6" cy="-162" rx="40.09" ry="18"/>
<text text-anchor="middle" x="624.6" y="-158.3" font-family="Times,serif" font-size="14.00">Bedrock</text>
</g>
<!-- Lithosphere&#45;&gt;Bedrock -->
<g id="edge21" class="edge">
<title>Lithosphere&#45;&gt;Bedrock</title>
<path fill="none" stroke="black" d="M604.89,-216.05C607.86,-208.06 611.47,-198.33 614.79,-189.4"/>
<polygon fill="black" stroke="black" points="618.16,-190.38 618.36,-179.79 611.6,-187.94 618.16,-190.38"/>
</g>
<!-- Atmosphere&#45;&gt;Biosphere -->
<g id="edge16" class="edge">
<title>Atmosphere&#45;&gt;Biosphere</title>
<path fill="none" stroke="black" d="M448.6,-215.7C448.6,-207.98 448.6,-198.71 448.6,-190.11"/>
<polygon fill="black" stroke="black" points="452.1,-190.1 448.6,-180.1 445.1,-190.1 452.1,-190.1"/>
</g>
<!-- Hydrosphere&#45;&gt;Biosphere -->
<g id="edge17" class="edge">
<title>Hydrosphere&#45;&gt;Biosphere</title>
<path fill="none" stroke="black" d="M305.72,-219.5C334.82,-208 376.72,-191.42 407.63,-179.2"/>
<polygon fill="black" stroke="black" points="409.23,-182.33 417.25,-175.4 406.66,-175.82 409.23,-182.33"/>
</g>
<!-- Ocean -->
<g id="node24" class="node">
<title>Ocean</title>
<ellipse fill="none" stroke="black" cx="271.6" cy="-162" rx="33.29" ry="18"/>
<text text-anchor="middle" x="271.6" y="-158.3" font-family="Times,serif" font-size="14.00">Ocean</text>
</g>
<!-- Hydrosphere&#45;&gt;Ocean -->
<g id="edge25" class="edge">
<title>Hydrosphere&#45;&gt;Ocean</title>
<path fill="none" stroke="black" d="M271.6,-215.7C271.6,-207.98 271.6,-198.71 271.6,-190.11"/>
<polygon fill="black" stroke="black" points="275.1,-190.1 271.6,-180.1 268.1,-190.1 275.1,-190.1"/>
</g>
<!-- River -->
<g id="node25" class="node">
<title>River</title>
<ellipse fill="none" stroke="black" cx="353.6" cy="-162" rx="30.59" ry="18"/>
<text text-anchor="middle" x="353.6" y="-158.3" font-family="Times,serif" font-size="14.00">River</text>
</g>
<!-- Hydrosphere&#45;&gt;River -->
<g id="edge26" class="edge">
<title>Hydrosphere&#45;&gt;River</title>
<path fill="none" stroke="black" d="M290.62,-216.76C302.1,-206.96 316.86,-194.36 329.2,-183.83"/>
<polygon fill="black" stroke="black" points="331.57,-186.4 336.9,-177.25 327.03,-181.08 331.57,-186.4"/>
</g>
<!-- Lake -->
<g id="node26" class="node">
<title>Lake</title>
<ellipse fill="none" stroke="black" cx="28.6" cy="-162" rx="28.7" ry="18"/>
<text text-anchor="middle" x="28.6" y="-158.3" font-family="Times,serif" font-size="14.00">Lake</text>
</g>
<!-- Hydrosphere&#45;&gt;Lake -->
<g id="edge27" class="edge">
<title>Hydrosphere&#45;&gt;Lake</title>
<path fill="none" stroke="black" d="M225.75,-223.46C183.77,-214.19 120.2,-198.77 66.6,-180 64.49,-179.26 62.34,-178.46 60.19,-177.61"/>
<polygon fill="black" stroke="black" points="61.43,-174.33 50.85,-173.7 58.73,-180.79 61.43,-174.33"/>
</g>
<!-- Stream -->
<g id="node27" class="node">
<title>Stream</title>
<ellipse fill="none" stroke="black" cx="111.6" cy="-162" rx="36.29" ry="18"/>
<text text-anchor="middle" x="111.6" y="-158.3" font-family="Times,serif" font-size="14.00">Stream</text>
</g>
<!-- Hydrosphere&#45;&gt;Stream -->
<g id="edge28" class="edge">
<title>Hydrosphere&#45;&gt;Stream</title>
<path fill="none" stroke="black" d="M239.6,-219C212.93,-207.33 174.95,-190.72 147.29,-178.62"/>
<polygon fill="black" stroke="black" points="148.54,-175.34 137.98,-174.54 145.74,-181.76 148.54,-175.34"/>
</g>
<!-- Rain -->
<g id="node28" class="node">
<title>Rain</title>
<ellipse fill="none" stroke="black" cx="193.6" cy="-162" rx="27.1" ry="18"/>
<text text-anchor="middle" x="193.6" y="-158.3" font-family="Times,serif" font-size="14.00">Rain</text>
</g>
<!-- Hydrosphere&#45;&gt;Rain -->
<g id="edge29" class="edge">
<title>Hydrosphere&#45;&gt;Rain</title>
<path fill="none" stroke="black" d="M253.51,-216.76C242.61,-206.99 228.62,-194.43 216.9,-183.91"/>
<polygon fill="black" stroke="black" points="219,-181.09 209.22,-177.02 214.32,-186.3 219,-181.09"/>
</g>
<!-- Flora -->
<g id="node29" class="node">
<title>Flora</title>
<ellipse fill="none" stroke="black" cx="539.6" cy="-90" rx="29.5" ry="18"/>
<text text-anchor="middle" x="539.6" y="-86.3" font-family="Times,serif" font-size="14.00">Flora</text>
</g>
<!-- Biosphere&#45;&gt;Flora -->
<g id="edge30" class="edge">
<title>Biosphere&#45;&gt;Flora</title>
<path fill="none" stroke="black" d="M468.79,-145.46C482.1,-135.23 499.64,-121.74 513.93,-110.74"/>
<polygon fill="black" stroke="black" points="516.12,-113.47 521.92,-104.6 511.86,-107.92 516.12,-113.47"/>
</g>
<!-- Fauna -->
<g id="node30" class="node">
<title>Fauna</title>
<ellipse fill="none" stroke="black" cx="448.6" cy="-90" rx="32.49" ry="18"/>
<text text-anchor="middle" x="448.6" y="-86.3" font-family="Times,serif" font-size="14.00">Fauna</text>
</g>
<!-- Biosphere&#45;&gt;Fauna -->
<g id="edge32" class="edge">
<title>Biosphere&#45;&gt;Fauna</title>
<path fill="none" stroke="black" d="M448.6,-143.7C448.6,-135.98 448.6,-126.71 448.6,-118.11"/>
<polygon fill="black" stroke="black" points="452.1,-118.1 448.6,-108.1 445.1,-118.1 452.1,-118.1"/>
</g>
<!-- Rock -->
<g id="node21" class="node">
<title>Rock</title>
<ellipse fill="none" stroke="black" cx="764.6" cy="-90" rx="29.5" ry="18"/>
<text text-anchor="middle" x="764.6" y="-86.3" font-family="Times,serif" font-size="14.00">Rock</text>
</g>
<!-- Rock_Layer&#45;&gt;Rock -->
<g id="edge22" class="edge">
<title>Rock_Layer&#45;&gt;Rock</title>
<path fill="none" stroke="black" d="M743.38,-144.05C746.61,-135.97 750.55,-126.12 754.15,-117.11"/>
<polygon fill="black" stroke="black" points="757.42,-118.37 757.88,-107.79 750.92,-115.77 757.42,-118.37"/>
</g>
<!-- Ore -->
<g id="node22" class="node">
<title>Ore</title>
<ellipse fill="none" stroke="black" cx="652.6" cy="-90" rx="27" ry="18"/>
<text text-anchor="middle" x="652.6" y="-86.3" font-family="Times,serif" font-size="14.00">Ore</text>
</g>
<!-- Rock_Layer&#45;&gt;Ore -->
<g id="edge23" class="edge">
<title>Rock_Layer&#45;&gt;Ore</title>
<path fill="none" stroke="black" d="M717.54,-145.12C705.47,-135.06 689.75,-121.96 676.8,-111.17"/>
<polygon fill="black" stroke="black" points="678.68,-108.18 668.76,-104.47 674.2,-113.56 678.68,-108.18"/>
</g>
<!-- Fossil_Fuel -->
<g id="node23" class="node">
<title>Fossil_Fuel</title>
<ellipse fill="none" stroke="black" cx="696.6" cy="-18" rx="51.99" ry="18"/>
<text text-anchor="middle" x="696.6" y="-14.3" font-family="Times,serif" font-size="14.00">Fossil_Fuel</text>
</g>
<!-- Rock_Layer&#45;&gt;Fossil_Fuel -->
<g id="edge24" class="edge">
<title>Rock_Layer&#45;&gt;Fossil_Fuel</title>
<path fill="none" stroke="black" d="M731.77,-143.87C724.93,-119.56 712.32,-74.82 704.21,-46.01"/>
<polygon fill="black" stroke="black" points="707.52,-44.87 701.44,-36.19 700.78,-46.76 707.52,-44.87"/>
</g>
<!-- Flora&#45;&gt;Fossil_Fuel -->
<g id="edge31" class="edge">
<title>Flora&#45;&gt;Fossil_Fuel</title>
<path fill="none" stroke="black" d="M562.76,-78.67C587.47,-67.66 627.06,-50.01 656.78,-36.75"/>
<polygon fill="black" stroke="black" points="658.34,-39.89 666.05,-32.62 655.49,-33.5 658.34,-39.89"/>
</g>
<!-- Carnivore -->
<g id="node31" class="node">
<title>Carnivore</title>
<ellipse fill="none" stroke="black" cx="338.6" cy="-18" rx="46.29" ry="18"/>
<text text-anchor="middle" x="338.6" y="-14.3" font-family="Times,serif" font-size="14.00">Carnivore</text>
</g>
<!-- Fauna&#45;&gt;Carnivore -->
<g id="edge33" class="edge">
<title>Fauna&#45;&gt;Carnivore</title>
<path fill="none" stroke="black" d="M428.17,-76C411.86,-65.62 388.74,-50.91 370.07,-39.03"/>
<polygon fill="black" stroke="black" points="371.9,-36.04 361.58,-33.63 368.14,-41.95 371.9,-36.04"/>
</g>
<!-- Herbivore -->
<g id="node32" class="node">
<title>Herbivore</title>
<ellipse fill="none" stroke="black" cx="448.6" cy="-18" rx="46.29" ry="18"/>
<text text-anchor="middle" x="448.6" y="-14.3" font-family="Times,serif" font-size="14.00">Herbivore</text>
</g>
<!-- Fauna&#45;&gt;Herbivore -->
<g id="edge34" class="edge">
<title>Fauna&#45;&gt;Herbivore</title>
<path fill="none" stroke="black" d="M448.6,-71.7C448.6,-63.98 448.6,-54.71 448.6,-46.11"/>
<polygon fill="black" stroke="black" points="452.1,-46.1 448.6,-36.1 445.1,-46.1 452.1,-46.1"/>
</g>
<!-- Human -->
<g id="node33" class="node">
<title>Human</title>
<ellipse fill="none" stroke="black" cx="549.6" cy="-18" rx="37.09" ry="18"/>
<text text-anchor="middle" x="549.6" y="-14.3" font-family="Times,serif" font-size="14.00">Human</text>
</g>
<!-- Fauna&#45;&gt;Human -->
<g id="edge35" class="edge">
<title>Fauna&#45;&gt;Human</title>
<path fill="none" stroke="black" d="M468.07,-75.5C483.01,-65.15 503.86,-50.7 520.73,-39"/>
<polygon fill="black" stroke="black" points="522.92,-41.75 529.14,-33.18 518.93,-36 522.92,-41.75"/>
</g>
</g>
</svg>
